<svg xmlns="http://www.w3.org/2000/svg" viewBox="0 0 373.35 64"><path class="cls-1" d="M51.11,28.34l3,17.39H48.83L45.89,28.34Zm-2,34.16V55.41a18.07,18.07,0,0,0,8.8-3.85,19.25,19.25,0,0,0,5.22-6.85,45.44,45.44,0,0,0,2.66-7.6A56.27,56.27,0,0,0,67,31a22.75,22.75,0,0,0,.25-2.56h6.79A71.76,71.76,0,0,1,73,36.48a50.65,50.65,0,0,1-2.26,7.7,32.11,32.11,0,0,1-4.41,8,28.06,28.06,0,0,1-7,6.64A24.87,24.87,0,0,1,49.13,62.5ZM59.57,28.34l3.15,17.39H57.29L54.35,28.34Z"/><path class="cls-1" d="M211.58,13.48a54.5,54.5,0,0,1-6.17,9.87q-3.65,4.63-6.66,8.07V63.09h-9.51V38.77a54.87,54.87,0,0,1-8.91,6,54.71,54.71,0,0,1-6.8,3.1c-1.69.58-2.55.87-2.59.87V39S172,38.6,174,37.77a56.44,56.44,0,0,0,7.67-4.09,56,56,0,0,0,9.73-7.83,57.43,57.43,0,0,0,9.33-12.37Z"/><path class="cls-1" d="M219.62,44.19V30.82h-6.14V21.19h6.14V12.76h9.09v8.43h11.5V12.52h9.1v8.67h6.44v9.63h-6.44v8.43a21.3,21.3,0,0,1-2.65,10.56,20.43,20.43,0,0,1-6.51,6.81,35,35,0,0,1-7.73,3.82,42.58,42.58,0,0,1-6.32,1.69l-2.62.42V52.79l1.77-.24a31.06,31.06,0,0,0,4.28-1,17.77,17.77,0,0,0,4.84-2.26,15.06,15.06,0,0,0,4-4,10.61,10.61,0,0,0,1.8-6.08V30.82h-11.5V44.19Z"/><path class="cls-1" d="M259,41.72V32.26h27.81v9.46Z"/><path class="cls-1" d="M336.32,24.32v-9.7h34.62a57.27,57.27,0,0,1-3.88,13,75.57,75.57,0,0,1-5.75,10.77c1.81,2.37,3.6,4.54,5.39,6.51a45.2,45.2,0,0,0,4.63,4.54l2,1.66v11.5c-2.17-1.57-4.13-3.09-5.9-4.58a69.86,69.86,0,0,1-5.66-5.39A74.58,74.58,0,0,1,356,45.63a65.17,65.17,0,0,1-7.49,7.86,59,59,0,0,1-7.08,5.39,54.26,54.26,0,0,1-5.24,3q-2,.93-2,.93V52a41.22,41.22,0,0,0,9.42-6.5,65.11,65.11,0,0,0,7.86-8.73,55.69,55.69,0,0,0,6.74-12.46Z"/><path class="cls-1" d="M22.08,6.15c-.18,1.26-.41,2.48-.68,3.66s-.54,2.3-.81,3.38H42.88V23.56A46.06,46.06,0,0,1,39,39.1a37.65,37.65,0,0,1-7.48,11.08,44,44,0,0,1-8.94,7,64.2,64.2,0,0,1-8.54,4.2,48.78,48.78,0,0,1-6.46,2.14A15.85,15.85,0,0,1,5,64V53a17.23,17.23,0,0,0,2.68-.64,39.47,39.47,0,0,0,6.4-2.54A34.19,34.19,0,0,0,22,44.28a30.43,30.43,0,0,0,6.68-8.6,36.07,36.07,0,0,0,3.42-12.39H16.46a62.32,62.32,0,0,1-7.65,9.88,51.14,51.14,0,0,1-6.2,5.56A14.2,14.2,0,0,1,0,40.42V27.35s.55-.42,1.52-1.25a21.7,21.7,0,0,0,3.36-4,48.45,48.45,0,0,0,3.69-6.61,38.93,38.93,0,0,0,2.81-9.31Z"/><circle class="cls-1" cx="30.74" cy="4.86" r="4.86"/><circle class="cls-1" cx="43.29" cy="4.86" r="4.86"/><path class="cls-1" d="M79.32,63.18V6.42H90V24.71h28.45V35.34H90V63.18Z"/><circle class="cls-1" cx="101.19" cy="11.34" r="4.86"/><circle class="cls-1" cx="113.74" cy="11.34" r="4.86"/><path class="cls-1" d="M126.59,39.13V29.92h39.26v9.21H153.32a23.84,23.84,0,0,1-3.07,10.71,20.48,20.48,0,0,1-6.41,6.75,31.9,31.9,0,0,1-7.35,3.61,37.44,37.44,0,0,1-5.84,1.48,16.56,16.56,0,0,1-2.37.27v-9.7a15.3,15.3,0,0,0,2.28-.27,23.58,23.58,0,0,0,5.27-1.56A12.62,12.62,0,0,0,141,46.5a13.54,13.54,0,0,0,2.56-7.37Zm1.69-15.54V14.38h25.58v9.21Z"/><circle class="cls-1" cx="161.11" cy="19.03" r="4.86"/><circle class="cls-1" cx="173.67" cy="19.03" r="4.86"/><path class="cls-1" d="M292.73,13.66h9.21v8h25.77v9.45H301.94V46.65a5.38,5.38,0,0,0,1.48,3.65q1.35,1.35,5.09,1.53,5.3.06,9.45-.24t9.75-1.2V60q-5.41.6-9.93.87t-10,.15q-6.63-.3-10.66-3.43t-4.4-10Z"/><circle class="cls-1" cx="310.52" cy="14.98" r="4.86"/><circle class="cls-1" cx="323.07" cy="14.98" r="4.86"/></svg>