<svg xmlns="http://www.w3.org/2000/svg" viewBox="0 0 910.73 160"><path d="M138.25,69.47l5.37,33q1,7.29-5.92,8.67T129.86,105l-5.51-32.61q-.82-7.42,6.33-8.26Q137.57,63.56,138.25,69.47Zm3.58,85.58q-9.78,2.2-11.7-6.61-1.38-9.76,6.47-11.14a43.69,43.69,0,0,0,19.81-10,54.43,54.43,0,0,0,13.48-18.1,115.78,115.78,0,0,0,7.5-20.64,140.66,140.66,0,0,0,3.24-15.41q1-8.79,9.76-8.94,9.36.42,8,10.32Q195.62,95.2,191,107.1a95.23,95.23,0,0,1-12.53,22.36,71.32,71.32,0,0,1-17.74,17A58.82,58.82,0,0,1,141.83,155.05Zm19.4-85.58,5.36,33q1,7.29-6.05,8.67T152.7,105l-5.51-32.61q-.69-7.42,6.33-8.26Q160.54,63.56,161.23,69.47Z"/><circle cx="268.24" cy="30.2" r="13.86"/><circle cx="301.5" cy="30.2" r="13.86"/><path d="M216.1,27.76q0-13.68,13.69-13.69t13.69,13.69V60.85h59.25q13.51,0,13.52,13.52,0,13.68-13.52,13.69H243.48v57.52q0,13.68-13.69,13.69T216.1,145.58Z"/><path d="M519.08,53.66a170.45,170.45,0,0,1-10.35,14.52q-5.06,6.31-12.39,14.67v65.56q0,11.6-11.59,11.59t-11.58-11.59V100.74q-11.3,9.11-30.36,18.63-8.81,4-13.5-4.11-3.66-12.17,5.28-16.42a136.91,136.91,0,0,0,20.17-10.49,135.63,135.63,0,0,0,23.69-19.07,122.34,122.34,0,0,0,20.68-26.77q4.69-7.32,15.25-3.52Q524.36,45.16,519.08,53.66Z"/><path d="M543.72,83.73h-3.23q-11.73,0-11.73-11.73t11.73-11.74h3.23V50.73q0-11,11-11t11.14,11v9.53h28V50.14q0-11,11-11t11.15,11V60.26h4q11.73,0,11.73,11.74T620,83.73h-4v20.53q-.3,15.4-6.46,25.75a52.62,52.62,0,0,1-17.31,17.45,83.46,83.46,0,0,1-26.69,10.63q-11,1.91-13.49-8.21-1.77-11.73,7.48-13.2,13.94-3.08,19.8-7.33a44.06,44.06,0,0,0,10.12-10.27,25.85,25.85,0,0,0,4.4-14.82V83.73h-28v21.56q0,11-11,11t-11.14-11Z"/><path d="M636.27,96.34q0-11.43,11.44-11.44h44.88Q704,84.9,704,96.34q0,11.59-11.44,11.59H647.71q-11.44,0-11.44-11.44Z"/><path d="M818.73,56q0-11.73,11.73-11.74H879q11.29-.44,16.06,8.59T894,73.61a167.42,167.42,0,0,1-14.37,28.45q6.6,8.66,13.78,17.53t14.09,16.21q6.74,9.39-.44,17-8.52,5-14.67-2.05a96.43,96.43,0,0,1-11.88-12.91q-7.05-8.79-13.94-18A155,155,0,0,1,848.28,139a131.55,131.55,0,0,1-18.84,13.86q-9.69,5.73-15.85-2.93-4.4-11.58,4.11-17,8.35-4,18.56-13.35A159,159,0,0,0,855.4,98.25a118.09,118.09,0,0,0,14.52-25.08c1.07-3.52,0-5.28-3.38-5.28H830.46q-11.73,0-11.73-11.73Z"/><path d="M54.28,31.4H84.94q30.84-.34,26,33.61a126.4,126.4,0,0,1-9.87,32.66Q93.43,114.92,82.26,126a109.89,109.89,0,0,1-23.13,17.85,182.87,182.87,0,0,1-25.82,12q-12.3,4.68-18-6.93-3.63-13.34,7.45-17.67a93.72,93.72,0,0,0,14.9-6.07,87.76,87.76,0,0,0,20.27-14.2A77.67,77.67,0,0,0,75,88.92q6.49-12.47,7.71-22.52,1.22-9-8-9.19h-31Q33.66,73.5,23.61,83,13.38,92.74,4.2,85.8q-8.49-11.43.18-20.27Q9.23,61.21,15.81,52T28.46,24.81q3.65-13,18-10.39Q58.44,17.89,54.28,31.4Z"/><circle cx="90.82" cy="13.86" r="13.86"/><circle cx="124.08" cy="26.24" r="13.86"/><path d="M325.61,90.33q0-11.14,11.15-11.15H410.1q11.14,0,11.14,11.15T410.1,101.62H390.74q-1.19,15.7-7.48,26.11a53,53,0,0,1-15.62,16.72q-9.33,6.31-25.31,10.12-10.41,2.2-12.9-8.21-2.21-11.3,7.62-13.49,15-3.23,21.93-11.52a34.75,34.75,0,0,0,8-19.73H336.76q-11.14,0-11.15-11.14Zm4.11-37.84q0-11.15,11.15-11.15h41.8q11.15,0,11.15,11.15T382.67,63.78h-41.8q-11.14,0-11.15-11.14Z"/><circle cx="409.93" cy="52.85" r="11.73"/><circle cx="438.1" cy="52.85" r="11.73"/><path d="M728.52,39.58q11.15,0,11.15,11.15v8.21H791q11.43,0,11.44,11.44Q802.45,82,791,82H739.67v38a13,13,0,0,0,3.59,8.87q3.3,3.3,12.4,3.74,12.9.15,35.79-1.46,11-.59,11.73,10,.59,11-10.56,12.32-25.38,1.9-38.72,1.61-16.14-.73-26-8.36t-10.71-24.49V50.73q0-11.15,11.15-11.15Z"/><circle cx="764.3" cy="43.47" r="11.73"/><circle cx="792.46" cy="43.47" r="11.73"/></svg>